<svg xmlns="http://www.w3.org/2000/svg" viewBox="0 0 3840 2160"><defs><style>.cls-1,.cls-2{fill:#fff;}.cls-2{font-size:452.12px;font-family:WrongDelivery, Wrong Delivery;}.cls-3{font-size:226.06px;}</style></defs><g id="Capa_2" data-name="Capa 2"><rect width="3840" height="2160"/></g><g id="Capa_1" data-name="Capa 1"><path class="cls-1" d="M1719.78,913.34v11.13c0,57.08.47,114.16-.31,171.23-.21,15-1.91,31-7.13,44.88-10.23,27.32-31.07,44.35-59.58,52.3-36.68,10.22-75.4-10.83-93.37-42.48-5.08-9-8-19.61-9.83-29.86s-1.64-21.09-1.65-31.67q-.11-190.12.07-380.24c.06-39.47,20.75-70.26,57.58-84.49,27.61-10.67,53.48-5.72,77.1,11.42a160.15,160.15,0,0,1,18.83,16.5c62.21,62,124.72,123.79,186.13,186.61,15.86,16.22,49.71,16.11,65.36.08,61.37-62.86,124.15-124.34,185.92-186.81,16.19-16.37,34.47-28.15,57-32.34,20.46-3.81,39.23,3,56.39,13.32a78.44,78.44,0,0,1,34,41.89c9.85,28.11,8.14,55.74-11.5,78.81-19.86,23.32-42,44.73-63.69,66.48Q2097.63,934,1983.64,1047.29c-8.34,8.27-18.38,15.76-29,20.57-29.46,13.34-58.09,10.52-84.25-9.21a195.69,195.69,0,0,1-20-17.68q-60.11-59.81-120-119.79C1727.93,918.7,1724.73,916.94,1719.78,913.34Z"/><path class="cls-1" d="M2122.25,1109.87c-1.7-45,39.46-85.48,84.74-85.41s85.76,40.56,84.72,86.53c-1,44.91-39.43,83.54-85,83.52C2160.75,1194.48,2122.25,1155.91,2122.25,1109.87Z"/><text class="cls-2" transform="translate(424.12 1600.33)">MOVE<tspan class="cls-3" x="1266.28" y="0">AND</tspan><tspan x="1733.19" y="0">CLICK</tspan></text></g></svg>